<svg xmlns="http://www.w3.org/2000/svg" width="73.229" height="47.93" viewBox="0 0 73.229 47.93"><defs><style>.a{fill:#fff;}</style></defs><g transform="translate(3.193 9.299)"><path class="a" d="M3495.364,4168.471c-2.978,0-4.505-1.33-5.981-2.616-1.542-1.345-3.134-2.731-6.29-2.731s-4.749,1.388-6.292,2.728c-1.479,1.288-3,2.62-5.992,2.62s-4.512-1.33-5.99-2.616c-1.542-1.346-3.14-2.731-6.3-2.731s-4.754,1.389-6.3,2.731a1.549,1.549,0,0,1-2.032-2.338h0a11.686,11.686,0,0,1,16.661,0c1.375,1.2,2.133,1.856,3.958,1.856s2.581-.659,3.952-1.854a11.671,11.671,0,0,1,16.655,0c1.373,1.2,2.128,1.854,3.947,1.854s2.579-.659,3.947-1.854a11.666,11.666,0,0,1,16.65,0,1.548,1.548,0,0,1-2,2.366l-.038-.033c-1.541-1.34-3.135-2.73-6.29-2.73s-4.749,1.388-6.289,2.728C3499.874,4167.14,3498.35,4168.471,3495.364,4168.471Z" transform="translate(-3449.657 -4160.027)"/></g><g transform="translate(0 0)"><path class="a" d="M3468.031,4098.462h-38.715a9.159,9.159,0,0,1-8.911-7.207l-8.311-38.852a1.549,1.549,0,0,1,3.029-.647h0l8.311,38.85a6.044,6.044,0,0,0,5.882,4.754h38.715a6.047,6.047,0,0,0,5.881-4.754l8.313-38.85a1.549,1.549,0,0,1,3.029.647h0l-8.312,38.852A9.163,9.163,0,0,1,3468.031,4098.462Z" transform="translate(-3412.059 -4050.531)"/></g></svg>