<svg xmlns="http://www.w3.org/2000/svg" width="52" height="52" viewBox="0 0 52 52"><defs><style>.a,.c{fill:none;}.a{stroke:#fff;stroke-width:2px;}.b{stroke:none;}</style></defs><g transform="translate(17680 22190)"><g class="a" transform="translate(-17680 -22190)"><circle class="b" cx="26" cy="26" r="26"/><circle class="c" cx="26" cy="26" r="25"/></g><path class="a" d="M11.452,13.088A6.544,6.544,0,1,0,4.908,6.544,6.543,6.543,0,0,0,11.452,13.088Zm4.581,1.636h-.854a8.9,8.9,0,0,1-7.454,0H6.871A6.873,6.873,0,0,0,0,21.6v2.127a2.455,2.455,0,0,0,2.454,2.454h18A2.455,2.455,0,0,0,22.9,23.722V21.6A6.873,6.873,0,0,0,16.033,14.724Z" transform="translate(-17665.381 -22177)"/></g></svg>