<svg xmlns="http://www.w3.org/2000/svg" width="74.558" height="43.373" viewBox="0 0 74.558 43.373"><defs><style>.a{fill:#fff;}</style></defs><path class="a" d="M3428.7,2448.353a1.641,1.641,0,0,1-1.431-.836l-14.6-26a1.651,1.651,0,0,1-.074-1.463c.2-.465,5.083-11.412,14.875-14.354,5.387-1.627,11.145-.49,17.1,3.369,6.784,4.4,12.57,5.974,17.2,4.672a10.46,10.46,0,0,0,6.39-5.059,1.647,1.647,0,0,1,2.859-.2l15.733,24.131a1.643,1.643,0,0,1,.075,1.673c-.192.361-4.83,8.875-13.652,10.777-5.643,1.222-11.584-.545-17.683-5.23-4.934-3.791-9.554-5.147-13.733-4.028-7.535,2.023-11.493,11.436-11.534,11.524a1.639,1.639,0,0,1-1.419,1.012A.681.681,0,0,1,3428.7,2448.353Zm-12.745-27.7,12.677,22.574c1.983-3.428,6.02-8.906,12.255-10.586,5.214-1.41,10.805.136,16.6,4.588,5.3,4.078,10.346,5.633,14.991,4.626,5.9-1.272,9.676-6.323,10.961-8.308l-13.822-21.193a13.866,13.866,0,0,1-6.885,4.521c-5.585,1.6-12.294-.1-19.946-5.053-5.1-3.3-9.928-4.31-14.349-2.984-7.022,2.1-11.289,9.479-12.484,11.815Z" transform="translate(-3412.46 -2404.981)"/></svg>