<svg xmlns="http://www.w3.org/2000/svg" width="74.559" height="56.421" viewBox="0 0 74.559 56.421"><defs><style>.a{fill:#fff;}</style></defs><g transform="translate(0.068 25.557)"><g transform="translate(0 0.005)"><path class="a" d="M3272.208,1719.6a1.623,1.623,0,0,1-.726-.171,1.643,1.643,0,0,1-.75-2.186,1.594,1.594,0,0,1,2.128-.747l.021.01.048.024a1.62,1.62,0,0,1-.726,3.069Z" transform="translate(-3270.568 -1716.341)"/></g><g transform="translate(5.926 2.852)"><path class="a" d="M3365.817,1764.648a1.593,1.593,0,0,1-.7-.158,1.659,1.659,0,0,1-.81-2.177,1.574,1.574,0,0,1,2.075-.8l.035.016.1.046a1.619,1.619,0,0,1-.7,3.081Zm-5.938-2.867a1.591,1.591,0,0,1-.708-.164,1.668,1.668,0,0,1-.793-2.19,1.573,1.573,0,0,1,2.082-.785l.038.018.1.048a1.619,1.619,0,0,1-.712,3.074Zm-5.939-2.867a1.6,1.6,0,0,1-.7-.16,1.659,1.659,0,0,1-.81-2.178,1.574,1.574,0,0,1,2.077-.8l.033.015.1.045a1.621,1.621,0,0,1-.7,3.083Zm-5.941-2.867a1.593,1.593,0,0,1-.708-.166,1.667,1.667,0,0,1-.793-2.191,1.576,1.576,0,0,1,2.087-.781l.032.015.1.048a1.621,1.621,0,0,1-.713,3.077Zm-5.938-2.869a1.625,1.625,0,0,1-.7-.158,1.659,1.659,0,0,1-.81-2.184,1.575,1.575,0,0,1,2.079-.8l.031.014.1.046a1.621,1.621,0,0,1-.7,3.083Z" transform="translate(-3340.409 -1749.9)"/></g><g transform="translate(35.592 17.168)"><path class="a" d="M3691.629,1921.875a1.566,1.566,0,0,1-.684-.149,1.638,1.638,0,1,1,1.419-.011A1.777,1.777,0,0,1,3691.629,1921.875Z" transform="translate(-3690.007 -1918.606)"/></g><g transform="translate(41.534 2.827)"><path class="a" d="M3761.689,1764.335a1.628,1.628,0,0,1-1.482-.905,1.573,1.573,0,0,1,.68-2.118l.036-.018.1-.045a1.62,1.62,0,1,1,1.423,2.91l-.028.013A1.652,1.652,0,0,1,3761.689,1764.335Zm5.937-2.869a1.625,1.625,0,0,1-1.474-.89,1.573,1.573,0,0,1,.659-2.125l.036-.019.1-.048a1.621,1.621,0,1,1,1.5,2.873l-.08.039a1.681,1.681,0,0,1-.739.166Zm5.94-2.867a1.626,1.626,0,0,1-1.473-.89,1.576,1.576,0,0,1,.662-2.128l.033-.017.1-.046a1.621,1.621,0,1,1,1.5,2.873l-.08.039a1.676,1.676,0,0,1-.74.17Zm5.941-2.867a1.63,1.63,0,0,1-1.482-.9,1.576,1.576,0,0,1,.683-2.122l.033-.016.1-.046a1.62,1.62,0,1,1,1.424,2.91l-.028.013a1.647,1.647,0,0,1-.725.165Zm5.937-2.867a1.629,1.629,0,0,1-1.473-.892,1.575,1.575,0,0,1,.664-2.126l.033-.017.094-.046a1.62,1.62,0,1,1,1.494,2.874l-.073.036a1.682,1.682,0,0,1-.739.173Z" transform="translate(-3760.033 -1749.601)"/></g><g transform="translate(71.214 0)"><path class="a" d="M4111.433,1719.532a1.629,1.629,0,0,1-1.46-.888,1.6,1.6,0,0,1,.681-2.152l.021-.01.046-.024a1.623,1.623,0,1,1,1.451,2.9h0A1.643,1.643,0,0,1,4111.433,1719.532Z" transform="translate(-4109.792 -1716.287)"/></g></g><g transform="translate(0 35.896)"><path class="a" d="M3307.063,1858.649a1.624,1.624,0,0,1-.706-.162l-35.634-17.265a1.62,1.62,0,0,1,1.328-2.955l.085.041,34.927,16.922,34.929-16.922a1.62,1.62,0,0,1,1.416,2.914l-35.636,17.265A1.623,1.623,0,0,1,3307.063,1858.649Z" transform="translate(-3269.766 -1838.125)"/></g><g transform="translate(0.042 0)"><path class="a" d="M3307.516,1450.715a1.625,1.625,0,0,1-.706-.162l-35.634-17.265a1.62,1.62,0,0,1,.073-2.949l35.634-15.1a1.608,1.608,0,0,1,1.266,0l35.636,15.1a1.62,1.62,0,0,1,.076,2.949l-35.636,17.265A1.629,1.629,0,0,1,3307.516,1450.715Zm-31.713-18.786,31.713,15.367,31.717-15.367-31.717-13.443Z" transform="translate(-3270.262 -1415.107)"/></g></svg>