<svg xmlns="http://www.w3.org/2000/svg" width="74.559" height="50.744" viewBox="0 0 74.559 50.744"><defs><style>.a{fill:#fff;}</style></defs><g transform="translate(0 0)"><g transform="translate(0 0)"><path class="a" d="M3219.045,537.482a25.372,25.372,0,1,1,25.371-25.373A25.372,25.372,0,0,1,3219.045,537.482Zm0-47.239a21.867,21.867,0,1,0,21.866,21.868v0A21.891,21.891,0,0,0,3219.045,490.243Z" transform="translate(-3193.672 -486.738)"/></g><g transform="translate(23.814)"><path class="a" d="M3524.444,537.482a25.372,25.372,0,1,1,25.373-25.373A25.372,25.372,0,0,1,3524.444,537.482Zm0-47.239a21.867,21.867,0,1,0,21.868,21.866h0A21.891,21.891,0,0,0,3524.444,490.243Z" transform="translate(-3499.073 -486.738)"/></g><g transform="translate(27.013 12.314)"><path class="a" d="M3558.854,648.164h-17.008a1.753,1.753,0,1,1,0-3.505h17.008a1.753,1.753,0,1,1,0,3.505Z" transform="translate(-3540.094 -644.659)"/></g><g transform="translate(25.954 19.665)"><path class="a" d="M3548.5,742.431h-20.228a1.753,1.753,0,1,1,0-3.505H3548.5a1.753,1.753,0,1,1,0,3.505Z" transform="translate(-3526.518 -738.926)"/></g><g transform="translate(25.954 27.014)"><path class="a" d="M3548.5,836.672h-20.228a1.753,1.753,0,1,1,0-3.505H3548.5a1.753,1.753,0,1,1,0,3.505Z" transform="translate(-3526.518 -833.167)"/></g><g transform="translate(27.013 34.362)"><path class="a" d="M3558.854,930.914h-17.008a1.753,1.753,0,1,1,0-3.505h17.008a1.753,1.753,0,1,1,0,3.505Z" transform="translate(-3540.094 -927.409)"/></g></g></svg>