<svg xmlns="http://www.w3.org/2000/svg" width="52" height="52" viewBox="0 0 52 52"><defs><style>.a,.d{fill:none;}.a{stroke:#fff;stroke-width:2px;}.b{fill:#fff;}.c{stroke:none;}</style></defs><g transform="translate(17680 22190)"><g class="a" transform="translate(-17680 -22190)"><circle class="c" cx="26" cy="26" r="26"/><circle class="d" cx="26" cy="26" r="25"/></g><g transform="translate(-19080.021 -22393.486)"><g transform="translate(1413.021 216.487)"><path class="b" d="M1417.037,216.487h18.086a1.132,1.132,0,0,1,.824,1.264c-.029,1.1-.01,2.195-.005,3.292a.7.7,0,0,0,.065.315q1.571,2.983,3.152,5.96v.664a1.2,1.2,0,0,0-.054.135,2.268,2.268,0,0,1-.747,1.218.585.585,0,0,0-.237.515c.006,3.422-.008,6.844.01,10.266a2.517,2.517,0,0,1-2.536,2.544c-6.393-.035-12.786-.016-19.179-.016a2.362,2.362,0,0,1-2.338-2.291c-.014-3.482-.01-6.963-.007-10.445a.557.557,0,0,0-.247-.56,1.211,1.211,0,0,1-.331-.35,1.939,1.939,0,0,1-.209-2.229c.979-1.768,1.9-3.566,2.844-5.355a.812.812,0,0,0,.091-.359c.007-1.073.027-2.146,0-3.218A1.215,1.215,0,0,1,1417.037,216.487Zm-.867,13.466c-.006.085-.013.144-.013.2q0,4.993,0,9.986c0,.359.109.461.479.461h4.929c.082,0,.165-.008.268-.013V240.3c0-1.43,0-2.86,0-4.291a4.437,4.437,0,0,1,.074-.963,4.24,4.24,0,0,1,8.389.969q0,2.133,0,4.265v.326h5.179c.456,0,.535-.078.536-.532q0-4.916,0-9.833c0-.091-.008-.181-.012-.284Zm20.871-2.145c-.04-.1-.056-.144-.079-.188-.869-1.635-1.741-3.268-2.6-4.906-.079-.15-.18-.148-.31-.148h-7.891q-3.984,0-7.968,0c-.188,0-.311.029-.395.223-.117.272-.275.527-.415.789l-2.265,4.24a3.777,3.777,0,0,0,.486.066q8.274,0,16.549,0c1.5,0,3,0,4.495,0A2.3,2.3,0,0,0,1437.042,227.808Zm-18.707-7.343h15.5v-1.9h-15.5Zm9.861,20.126c.007-.059.014-.092.014-.125,0-1.541,0-3.081,0-4.622a2.088,2.088,0,0,0-.326-1.109,2.177,2.177,0,0,0-2.374-.93,2.082,2.082,0,0,0-1.576,1.908c-.025,1.557-.015,3.115-.019,4.672,0,.065.01.13.016.206Z" transform="translate(-1413.021 -216.487)"/></g></g></g></svg>