<svg xmlns="http://www.w3.org/2000/svg" width="73.229" height="48.022" viewBox="0 0 73.229 48.022"><defs><style>.a{fill:#fff;}</style></defs><g transform="translate(0 0.365)"><g transform="translate(0 17.856)"><path class="a" d="M3491.872,3390.243a1.542,1.542,0,0,1-.834-.243l-41.958-26.667a1.556,1.556,0,0,1,1.6-2.667l.064.041,41.961,26.667a1.555,1.555,0,0,1-.833,2.871Z" transform="translate(-3448.325 -3360.444)"/></g><g transform="translate(14.131 8.987)"><path class="a" d="M3626.706,3305.51a1.539,1.539,0,0,1-.833-.244l-41.961-26.665a1.558,1.558,0,0,1,1.667-2.628l41.961,26.667a1.558,1.558,0,0,1-.839,2.871Z" transform="translate(-3583.245 -3275.766)"/></g><g transform="translate(28.085 0)"><path class="a" d="M3760.035,3219.759a1.55,1.55,0,0,1-.833-.243l-41.958-26.667a1.557,1.557,0,0,1,1.594-2.675c.025.015.05.031.073.047l41.958,26.667a1.557,1.557,0,0,1-.833,2.871Z" transform="translate(-3716.483 -3189.955)"/></g></g><g transform="translate(0.034 0)"><g transform="translate(28.088 17.87)"><path class="a" d="M3718.4,3386.894a1.555,1.555,0,0,1-.833-2.871l41.958-26.667a1.556,1.556,0,0,1,1.731,2.586l-.064.041-41.959,26.67A1.53,1.53,0,0,1,3718.4,3386.894Z" transform="translate(-3716.837 -3357.093)"/></g><g transform="translate(14.047 8.989)"><path class="a" d="M3584.329,3302.058a1.558,1.558,0,0,1-.834-2.871l41.961-26.667a1.557,1.557,0,0,1,1.667,2.628l-41.96,26.666A1.543,1.543,0,0,1,3584.329,3302.058Z" transform="translate(-3582.775 -3272.3)"/></g><path class="a" d="M3450.209,3216.292a1.557,1.557,0,0,1-.833-2.871l41.958-26.667a1.558,1.558,0,0,1,1.784,2.554c-.038.026-.077.051-.117.074l-41.959,26.666A1.549,1.549,0,0,1,3450.209,3216.292Z" transform="translate(-3448.654 -3186.473)"/></g></svg>