<svg xmlns="http://www.w3.org/2000/svg" width="19.463" height="14.597" viewBox="0 0 19.463 14.597"><defs><style>.a{fill:#009fe3;}</style></defs><path class="a" d="M19.095,9.32a.229.229,0,0,1,.369.179v7.774A1.825,1.825,0,0,1,17.639,19.1H1.825A1.825,1.825,0,0,1,0,17.272V9.5a.227.227,0,0,1,.369-.179c.852.661,1.981,1.5,5.858,4.318.8.585,2.155,1.817,3.5,1.809,1.357.011,2.737-1.247,3.509-1.809C17.118,10.825,18.243,9.981,19.095,9.32ZM9.732,14.231c.882.015,2.152-1.11,2.79-1.574C17.566,9,17.95,8.678,19.114,7.765a.91.91,0,0,0,.35-.718V6.325A1.825,1.825,0,0,0,17.639,4.5H1.825A1.825,1.825,0,0,0,0,6.325v.722a.915.915,0,0,0,.35.718C1.513,8.674,1.9,9,6.941,12.658,7.58,13.121,8.85,14.247,9.732,14.231Z" transform="translate(0 -4.5)"/></svg>