<svg xmlns="http://www.w3.org/2000/svg" width="362.144" height="65.699" viewBox="0 0 362.144 65.699"><defs><style>.a{fill:#078dd0;}.b{fill:#008cd1;}.c{fill:#fff;}</style></defs><g transform="translate(-96.367 -79.794)"><g transform="translate(96.367 83.775)"><path class="a" d="M1032.077,153.874h20.089c4.086,0,6.564-2.544,6.564-5.827,0-3.883-3.08-5.625-8.841-5.96-12.052-.736-19.485-5.825-19.485-16.406,0-8.905,7.634-16.339,17.677-16.339h20.893v10.379h-20.089c-4.018,0-6.5,2.479-6.5,5.76,0,3.884,3.014,5.691,8.774,6.027,11.985.736,19.484,5.825,19.484,16.4,0,8.907-7.634,16.34-17.476,16.34h-21.095Z" transform="translate(-812.498 -106.43)"/><path class="a" d="M1211.618,110.98a7.33,7.33,0,0,1,6.964-4.218,7.541,7.541,0,0,1,6.964,4.218l21.494,51.294h-13.125l-4.217-10.715-11.183-27.118-15.4,37.9h-13.125Z" transform="translate(-934.851 -104.452)"/><path class="a" d="M1456.436,142.711v21.83h-11.854V116.127c0-3.615,3.215-6.5,7.233-6.5h28.861v10.245h-24.24v12.388" transform="translate(-1130.05 -106.652)"/><path class="a" d="M1208.074,229.616s11.854-10.245,51.16-12.589c29.464-1.808,39.709,1.2,39.709,1.2V207.183c.067,0-58.392-2.88-90.869,22.433" transform="translate(-948.718 -181.369)"/><path class="a" d="M1611.658,109.056v.737h-1.407v3.75h-.87v-3.75h-1.474v-.737Zm4.82,4.487-.133-2.611v-1.273h-.069c-.133.4-.267.939-.4,1.34l-.8,2.477h-.937l-.8-2.544a12.425,12.425,0,0,0-.334-1.273h-.067v1.273l-.134,2.611h-.87l.334-4.487h1.339l.806,2.21c.066.334.2.67.267,1.138.134-.4.2-.8.334-1.138l.8-2.21h1.274l.334,4.487Z" transform="translate(-1255.272 -106.211)"/><path class="b" d="M103.549,112.675c-3.048,0-4.543-.853-4.543-2.667s1.5-2.7,4.543-2.7H114.7c3.046,0,4.548.884,4.548,2.7s-1.5,2.667-4.548,2.667h-2.369V128.8c0,2.754-1.025,4.1-3.207,4.1s-3.2-1.341-3.2-4.1V112.675Z" transform="translate(-98.39 -104.873)"/><path class="b" d="M189.663,139.98a3.885,3.885,0,0,0-4.07-3.4,4.172,4.172,0,0,0-4.241,3.4Zm-3.471,7.112c3.162,0,5.2-1.834,6.642-1.834a2.244,2.244,0,0,1,2.51,2.2c0,2.235-3.99,4.766-9.472,4.766-6.2,0-10.922-4.266-10.922-10.08s4.57-10.2,10.6-10.2,10.265,4.35,10.265,9.437c0,1.952-.99,2.318-3.115,2.318h-11.27c.281,2.13,2.039,3.393,4.76,3.393" transform="translate(-156.617 -123.76)"/><path class="b" d="M288.611,132.9c4.227,0,7.017,1.5,7.017,3.59a2.42,2.42,0,0,1-2.6,2.382c-1.158,0-2.628-.857-4.421-.857-2.554,0-4.348,1.856-4.348,4.728,0,2.919,1.713,4.733,4.582,4.733,1.835,0,3.272-.852,4.306-.852a2.381,2.381,0,0,1,2.441,2.411c0,1.957-2.995,3.739-7.378,3.739-6.147,0-10.413-3.987-10.413-9.922,0-5.793,4.227-9.951,10.81-9.951" transform="translate(-235.473 -124.494)"/><path class="b" d="M381.1,104.912c4.849,0,7.572,2.576,7.572,7.564v8.231c0,2.8-.986,4.189-3.118,4.189s-3.111-1.385-3.111-4.189v-6.48c0-3.018-.829-4.444-3.354-4.444-2.367,0-3.308,1.491-3.308,4.369v6.554c0,2.8-.988,4.189-3.122,4.189s-3.107-1.385-3.107-4.189V101.047c0-2.8.983-4.187,3.107-4.187,2.1,0,3.122,1.389,3.122,4.187v5.681c1.407-1.385,3.034-1.817,5.318-1.817" transform="translate(-305.824 -96.86)"/><path class="b" d="M473.541,135.571c0-2.785.977-4.126,3.091-4.126a3.291,3.291,0,0,1,2.932,1.807,7.01,7.01,0,0,1,5.431-1.917c4.811,0,7.505,2.573,7.505,7.537v8.186c0,2.783-.98,4.158-3.088,4.158s-3.1-1.375-3.1-4.158v-6.446c0-3.016-.814-4.425-3.314-4.425-2.355,0-3.284,1.487-3.284,4.353v6.519c0,2.783-.98,4.158-3.087,4.158s-3.091-1.375-3.091-4.158Z" transform="translate(-385.548 -123.292)"/><path class="b" d="M577.706,126.152c-2.178,0-3.178-1.371-3.178-4.15V110.561c0-2.779,1-4.116,3.178-4.116,2.123,0,3.137,1.337,3.137,4.116V122c0,2.779-.971,4.15-3.137,4.15m0-27.79a3.3,3.3,0,1,1-3.663,3.284,3.5,3.5,0,0,1,3.663-3.284" transform="translate(-462.603 -98.012)"/><path class="b" d="M718.973,147.2c2.293,0,4.006-1.828,4.006-4.624,0-2.761-1.747-4.519-4.006-4.519s-4.045,1.719-4.045,4.519c0,2.871,1.75,4.624,4.045,4.624m-1.034,5.413c-5.106,0-9.467-4.055-9.467-9.975a9.75,9.75,0,0,1,9.7-9.989,6.365,6.365,0,0,1,5,2.007,3.409,3.409,0,0,1,2.972-1.8c2.14,0,3.088,1.329,3.088,4.091v11.354c0,2.764-.99,4.124-3.088,4.124a3.056,3.056,0,0,1-2.972-1.969,6.867,6.867,0,0,1-5.23,2.153" transform="translate(-565.671 -124.3)"/><path class="b" d="M820.143,99.437c2.154,0,3.167,1.354,3.167,4.1v19.24c0,2.744-.972,4.1-3.167,4.1-2.215,0-3.228-1.352-3.228-4.1v-19.24c0-2.744,1.013-4.1,3.228-4.1" transform="translate(-648.815 -98.836)"/><path class="c" d="M110.507,249.73l-2.934-9.465-3.15,9.465Zm-8.588,7.905c-.578,1.719-1.543,2.579-2.795,2.579a2.648,2.648,0,0,1-2.758-2.757,4.5,4.5,0,0,1,.291-1.687l6.623-17.982c.934-2.542,2.283-3.76,4.432-3.76,1.973,0,3.474,1.182,4.269,3.367l6.437,18.305a5.861,5.861,0,0,1,.393,1.831,2.686,2.686,0,0,1-2.862,2.715c-1.506,0-2.467-.922-3.036-2.825l-.716-2.365h-9.421Z" transform="translate(-96.367 -202.028)"/><path class="c" d="M280.717,277.868a2.361,2.361,0,0,1,2.161-2.544c1.758,0,3.492,1.642,5.252,1.642.968,0,1.582-.537,1.582-1.145,0-.891-1.044-1.253-3.091-2.077-3.49-1.436-5.4-2.765-5.4-5.774,0-3.372,2.88-6.1,7.091-6.1,3.955,0,6.653,1.975,6.653,3.947a2.341,2.341,0,0,1-2.337,2.362c-1.365,0-3.018-1.359-4.568-1.359-.828,0-1.291.428-1.291.962,0,1.081,1.543,1.3,3.919,2.336,3.128,1.4,4.709,2.9,4.709,5.485,0,3.588-3.13,6.456-7.659,6.456-4.211,0-7.02-1.891-7.02-4.193" transform="translate(-237.709 -223.375)"/><path class="c" d="M355.542,276.616c2.134,0,3.7-1.843,3.7-4.754,0-2.844-1.638-4.68-3.7-4.68s-3.691,1.769-3.691,4.68c0,2.943,1.568,4.754,3.691,4.754m0-14.677c5.534,0,9.434,4.182,9.434,10s-3.9,9.993-9.434,9.993c-5.5,0-9.463-4.181-9.463-9.993s3.968-10,9.463-10" transform="translate(-287.822 -223.427)"/><path class="c" d="M434.365,266.55c0-2.734.885-4.038,2.8-4.038a2.951,2.951,0,0,1,2.658,1.767,5.283,5.283,0,0,1,3.8-1.873,2.826,2.826,0,0,1,2.831,2.761c0,2.232-2.484,2.413-4.754,3.471-1.561.739-1.736,1.421-1.736,3.337v5.81c0,2.734-.885,4.083-2.8,4.083s-2.8-1.348-2.8-4.083Z" transform="translate(-355.512 -223.785)"/><path class="c" d="M585.192,269.8a3.617,3.617,0,0,0-3.653-3.376,3.846,3.846,0,0,0-3.809,3.376Zm-3.125,7.08c2.837,0,4.664-1.829,5.968-1.829a2.117,2.117,0,0,1,2.259,2.194c0,2.221-3.589,4.739-8.507,4.739a9.674,9.674,0,0,1-9.8-10.028c0-5.782,4.094-10.139,9.514-10.139a9.181,9.181,0,0,1,9.232,9.382c0,1.943-.909,2.309-2.81,2.309H577.805c.242,2.109,1.828,3.372,4.262,3.372" transform="translate(-461.025 -223.331)"/><path class="c" d="M659.576,266.55c0-2.734.891-4.038,2.8-4.038a2.967,2.967,0,0,1,2.659,1.767,6.14,6.14,0,0,1,4.929-1.873c4.361,0,6.812,2.508,6.812,7.368v8.011c0,2.734-.887,4.083-2.8,4.083s-2.806-1.348-2.806-4.083v-6.3c0-2.957-.751-4.332-3.015-4.332-2.126,0-2.976,1.453-2.976,4.25v6.381c0,2.734-.891,4.083-2.8,4.083s-2.8-1.348-2.8-4.083Z" transform="translate(-528.182 -223.785)"/><path class="c" d="M737.789,247.721c-2.062,0-3.287-.965-3.287-2.435,0-1.543,1.186-2.406,3.509-2.516v-2.479c0-2.761.92-4.12,2.92-4.12,1.958,0,2.88,1.36,2.88,4.12v2.479h.513c2.329,0,3.659.973,3.659,2.516,0,1.576-1.229,2.435-3.7,2.435h-.474v10.016c0,2.761-.888,4.119-2.88,4.119s-2.92-1.358-2.92-4.119V247.721Z" transform="translate(-585.628 -203.67)"/><path class="c" d="M790.753,277.747a2.328,2.328,0,0,1,2.126-2.515c1.741,0,3.439,1.624,5.179,1.624.954,0,1.557-.529,1.557-1.129,0-.884-1.032-1.242-3.048-2.056-3.442-1.418-5.32-2.732-5.32-5.707,0-3.333,2.836-6.028,6.989-6.028,3.9,0,6.556,1.943,6.556,3.9a2.3,2.3,0,0,1-2.3,2.333c-1.343,0-2.978-1.343-4.5-1.343-.815,0-1.277.434-1.277.954,0,1.069,1.527,1.278,3.862,2.315,3.09,1.379,4.649,2.864,4.649,5.417,0,3.553-3.081,6.392-7.551,6.392-4.15,0-6.915-1.882-6.915-4.157" transform="translate(-628.756 -223.425)"/><path class="c" d="M496.284,250.961c2.134,0,3.758-1.883,3.758-4.772,0-2.965-1.624-4.849-3.758-4.849s-3.758,1.842-3.758,4.849c0,2.96,1.62,4.772,3.758,4.772m.832-14.889c4.762,0,8.746,4.225,8.746,10.217,0,5.6-4.085,9.979-8.746,9.979a6.033,6.033,0,0,1-4.632-1.95,3.113,3.113,0,0,1-2.7,1.841c-1.957,0-2.867-1.373-2.867-4.154V232.485c0-2.785.911-4.157,2.867-4.157s2.848,1.372,2.848,4.157v5.2a6.579,6.579,0,0,1,4.483-1.617" transform="translate(-395.805 -197.657)"/><path class="c" d="M206.2,250.066c2.132,0,3.755-1.878,3.755-4.769,0-2.962-1.624-4.845-3.755-4.845s-3.755,1.843-3.755,4.845c0,2.962,1.621,4.769,3.755,4.769m.827-14.89c4.771,0,8.751,4.234,8.751,10.23,0,5.6-4.084,9.974-8.751,9.974a6,6,0,0,1-4.618-1.948,3.142,3.142,0,0,1-2.722,1.841c-1.947,0-2.85-1.372-2.85-4.158V231.6c0-2.786.9-4.151,2.85-4.151s2.866,1.365,2.866,4.151v5.21a6.547,6.547,0,0,1,4.474-1.631" transform="translate(-173.396 -196.98)"/><path class="b" d="M630.253,133.361c4.225,0,7.02,1.485,7.02,3.586a2.421,2.421,0,0,1-2.6,2.381c-1.155,0-2.628-.852-4.424-.852-2.557,0-4.343,1.848-4.343,4.729,0,2.918,1.715,4.732,4.585,4.732,1.825,0,3.266-.852,4.3-.852a2.37,2.37,0,0,1,2.428,2.41c0,1.96-2.985,3.74-7.374,3.74-6.139,0-10.41-3.988-10.41-9.919,0-5.8,4.227-9.954,10.81-9.954" transform="translate(-497.412 -124.845)"/></g><g transform="translate(293.215 79.794)"><rect class="b" width="0.565" height="65.699" transform="translate(0 0)"/></g></g></svg>